<svg width="0" height="0" class="hidden">
  <symbol fill="none" xmlns="http://www.w3.org/2000/svg" viewBox="0 0 40 27" id="filter">
    <path d="M15.5556 26.6667H24.4444V22.2222H15.5556V26.6667ZM0 0V4.44444H40V0H0ZM6.66667 15.5556H33.3333V11.1111H6.66667V15.5556Z" fill="black"></path>
  </symbol>
  <symbol fill="none" xmlns="http://www.w3.org/2000/svg" viewBox="0 0 45 34" id="view-cards">
    <rect x="0.5" y="0.5" width="44" height="33" stroke="#111111"></rect>
    <rect x="2.65552" y="3.43042" width="10.9667" height="12.3418" fill="#111111"></rect>
    <rect x="2.65552" y="18.7341" width="10.9667" height="12.3418" fill="#111111"></rect>
    <rect x="16.7556" y="18.7341" width="10.9667" height="12.3418" fill="#111111"></rect>
    <rect x="30.8556" y="18.7341" width="10.9667" height="12.3418" fill="#111111"></rect>
    <rect x="16.7556" y="3.43042" width="10.9667" height="12.3418" fill="#111111"></rect>
    <rect x="30.8556" y="3.43042" width="10.9667" height="12.3418" fill="#111111"></rect>
  </symbol>
  <symbol fill="none" xmlns="http://www.w3.org/2000/svg" viewBox="0 0 45 34" id="view-list">
    <rect x="0.5" y="0.5" width="44" height="33" stroke="#111111"></rect>
    <rect x="2" y="3" width="19" height="28" fill="#111111"></rect>
    <rect x="24" y="3" width="19" height="28" fill="#111111"></rect>
  </symbol>
  <symbol fill="none" xmlns="http://www.w3.org/2000/svg" viewBox="0 0 35 35" id="search">
    <path d="M25 22H23.42L22.86 21.46C24.82 19.18 26 16.22 26 13C26 5.82 20.18 0 13 0C5.82 0 0 5.82 0 13C0 20.18 5.82 26 13 26C16.22 26 19.18 24.82 21.46 22.86L22 23.42V25L32 34.98L34.98 32L25 22ZM13 22C8.02 22 4 17.98 4 13C4 8.02 8.02 4 13 4C17.98 4 22 8.02 22 13C22 17.98 17.98 22 13 22Z" fill="black"></path>
  </symbol>
  <symbol xmlns="http://www.w3.org/2000/svg" fill="#000000" viewBox="0 0 24 24" id="Shopping Basket">
    <path d="M0 0h24v24H0z" fill="none"></path>
    <path d="M17.21 9l-4.38-6.56c-.19-.28-.51-.42-.83-.42-.32 0-.64.14-.83.43L6.79 9H2c-.55 0-1 .45-1 1 0 .09.01.18.04.27l2.54 9.27c.23.84 1 1.46 1.92 1.46h13c.92 0 1.69-.62 1.93-1.46l2.54-9.27L23 10c0-.55-.45-1-1-1h-4.79zM9 9l3-4.4L15 9H9zm3 8c-1.1 0-2-.9-2-2s.9-2 2-2 2 .9 2 2-.9 2-2 2z"></path>
  </symbol>
  <symbol xmlns="http://www.w3.org/2000/svg" enable-background="new 0 0 24 24" fill="#000000" viewBox="0 0 24 24" id="value">
    <g>
      <rect fill="none" height="24" width="24"></rect>
    </g>
    <g>
      <path d="M12,2C6.48,2,2,6.48,2,12s4.48,10,10,10s10-4.48,10-10S17.52,2,12,2z M12.88,17.76V19h-1.75v-1.29 c-0.74-0.18-2.39-0.77-3.02-2.96l1.65-0.67c0.06,0.22,0.58,2.09,2.4,2.09c0.93,0,1.98-0.48,1.98-1.61c0-0.96-0.7-1.46-2.28-2.03 c-1.1-0.39-3.35-1.03-3.35-3.31c0-0.1,0.01-2.4,2.62-2.96V5h1.75v1.24c1.84,0.32,2.51,1.79,2.66,2.23l-1.58,0.67 c-0.11-0.35-0.59-1.34-1.9-1.34c-0.7,0-1.81,0.37-1.81,1.39c0,0.95,0.86,1.31,2.64,1.9c2.4,0.83,3.01,2.05,3.01,3.45 C15.9,17.17,13.4,17.67,12.88,17.76z"></path>
    </g>
  </symbol>
  <symbol fill="none" xmlns="http://www.w3.org/2000/svg" viewBox="0 0 48 48" id="info">
    <g clip-path="url(#clip0_3_456)">
      <path d="M22 14H26V18H22V14ZM22 22H26V34H22V22ZM24 4C12.96 4 4 12.96 4 24C4 35.04 12.96 44 24 44C35.04 44 44 35.04 44 24C44 12.96 35.04 4 24 4ZM24 40C15.18 40 8 32.82 8 24C8 15.18 15.18 8 24 8C32.82 8 40 15.18 40 24C40 32.82 32.82 40 24 40Z" fill="black" fill-opacity="0.8"></path>
    </g>
    <defs>
      <clipPath id="clip0_3_456">
        <rect width="48" height="48" fill="white"></rect>
      </clipPath>
    </defs>
  </symbol>
</svg>