<?xml version="1.0" standalone="no"?>
<!DOCTYPE svg PUBLIC "-//W3C//DTD SVG 20010904//EN"
 "http://www.w3.org/TR/2001/REC-SVG-20010904/DTD/svg10.dtd">
<svg version="1.0" xmlns="http://www.w3.org/2000/svg"
 width="300.000000pt" height="300.000000pt" viewBox="0 0 300.000000 300.000000"
 preserveAspectRatio="xMidYMid meet">
<metadata>
Created by potrace 1.14, written by Peter Selinger 2001-2017
</metadata>
<g transform="translate(0.000000,300.000000) scale(0.100000,-0.100000)"
fill="#000000" stroke="none">
<path d="M1290 2991 c0 -5 -9 -7 -20 -4 -12 3 -20 0 -20 -7 0 -10 -3 -10 -15
0 -12 10 -18 10 -30 0 -8 -7 -22 -10 -30 -6 -8 3 -15 1 -15 -5 0 -6 -4 -8 -9
-4 -5 3 -12 1 -16 -4 -3 -5 -13 -10 -23 -10 -31 0 -112 -24 -112 -33 0 -5 -4
-6 -10 -3 -5 3 -10 2 -10 -4 0 -6 -7 -8 -15 -5 -8 4 -15 1 -15 -7 0 -7 -3 -10
-6 -6 -10 10 -64 -14 -57 -26 3 -7 3 -9 -2 -5 -4 4 -15 2 -23 -5 -13 -10 -14
-9 -7 2 5 9 -5 5 -22 -7 -17 -12 -36 -22 -42 -22 -5 0 -14 -7 -19 -16 -5 -9
-12 -15 -15 -15 -24 3 -37 0 -32 -9 3 -5 -6 -12 -20 -16 -14 -3 -25 -10 -25
-16 0 -5 -4 -7 -9 -3 -6 3 -14 -3 -20 -12 -6 -10 -11 -14 -11 -10 0 4 -10 -1
-22 -12 -11 -11 -25 -18 -29 -15 -5 3 -6 -3 -2 -12 4 -12 3 -15 -5 -10 -7 4
-12 2 -12 -3 0 -6 -6 -11 -13 -11 -17 0 -47 -36 -39 -46 4 -4 2 -4 -4 -1 -13
7 -84 -55 -84 -73 0 -6 -4 -9 -9 -6 -9 6 -26 -22 -22 -37 1 -5 -3 -6 -7 -3 -5
3 -18 -5 -28 -19 -10 -13 -21 -22 -26 -19 -4 3 -5 -2 -2 -10 4 -9 -1 -18 -10
-22 -9 -3 -16 -13 -16 -21 0 -8 -4 -11 -10 -8 -5 3 -10 1 -10 -5 0 -6 -7 -18
-15 -27 -8 -8 -12 -19 -9 -25 4 -6 3 -8 -2 -5 -6 3 -16 -3 -23 -15 -10 -16
-10 -19 1 -13 7 3 5 0 -4 -8 -10 -8 -18 -18 -18 -22 0 -4 -8 -14 -18 -22 -11
-10 -12 -12 -2 -8 13 6 13 5 0 -7 -8 -7 -16 -20 -18 -28 -2 -8 -8 -17 -13 -18
-5 -2 -7 -7 -4 -12 3 -4 -2 -13 -10 -20 -8 -7 -15 -21 -15 -31 0 -10 -5 -21
-10 -24 -6 -4 -8 -11 -5 -16 4 -5 1 -9 -5 -9 -6 0 -8 -4 -5 -10 3 -5 1 -10 -5
-10 -6 0 -9 -4 -5 -9 3 -5 1 -12 -5 -16 -6 -4 -8 -11 -5 -16 4 -5 2 -9 -4 -9
-6 0 -8 -7 -5 -15 4 -8 2 -15 -3 -15 -5 0 -10 -12 -11 -27 -1 -15 -6 -29 -10
-32 -5 -3 -8 -17 -8 -31 0 -16 -5 -24 -14 -22 -10 2 -11 0 -2 -11 7 -8 9 -17
5 -21 -8 -8 -13 -30 -15 -68 0 -15 -4 -26 -8 -23 -3 2 -6 -21 -6 -51 1 -30 -2
-54 -6 -54 -4 0 -5 -76 -4 -169 2 -129 6 -174 17 -187 8 -10 9 -15 2 -11 -8 5
-11 0 -10 -13 1 -11 4 -20 7 -20 4 0 7 -6 8 -12 9 -84 24 -148 34 -148 6 0 4
-8 -3 -17 -10 -11 -10 -14 -2 -9 13 7 17 -4 14 -31 -1 -7 3 -13 10 -13 6 0 9
-7 5 -15 -3 -8 -1 -15 5 -15 6 0 9 -7 5 -15 -3 -8 -1 -15 5 -15 6 0 8 -4 4 -9
-3 -5 -1 -12 5 -16 6 -4 8 -11 5 -16 -4 -5 -2 -9 3 -9 5 0 15 -18 22 -40 7
-22 17 -40 22 -40 4 0 8 -8 8 -19 0 -10 10 -29 23 -42 12 -14 21 -32 19 -41
-2 -9 5 -19 17 -23 11 -3 18 -12 15 -19 -3 -7 2 -16 11 -20 10 -3 15 -12 11
-21 -3 -9 0 -15 9 -15 8 0 16 -4 16 -10 1 -5 2 -14 3 -19 0 -5 5 -13 10 -18 5
-5 6 -2 1 7 -4 8 2 5 14 -7 11 -12 20 -28 19 -35 -2 -7 3 -12 10 -10 8 1 16
-7 19 -18 3 -11 9 -17 14 -14 5 3 9 0 9 -6 0 -13 90 -104 90 -92 0 4 10 -8 21
-26 12 -17 27 -32 35 -32 8 0 14 -4 14 -10 0 -5 7 -10 16 -10 8 0 12 -4 9 -10
-3 -5 -2 -10 4 -10 5 0 23 -11 39 -25 16 -13 32 -22 36 -18 3 3 6 1 6 -5 0 -7
7 -12 15 -12 8 0 15 -3 15 -7 1 -11 80 -59 91 -55 5 1 9 -3 9 -9 0 -5 4 -7 10
-4 5 3 10 1 10 -5 0 -6 5 -8 10 -5 6 3 10 -1 10 -9 0 -9 6 -13 14 -10 8 3 17
0 21 -5 3 -6 11 -9 16 -6 5 4 9 1 9 -4 0 -6 3 -10 8 -10 4 1 23 -4 42 -12 19
-7 38 -12 43 -11 4 1 7 -3 7 -9 0 -5 4 -8 9 -5 13 8 62 -19 53 -30 -4 -4 1 -2
11 6 13 10 21 11 25 3 4 -7 19 -13 34 -15 15 -2 30 -7 34 -11 4 -4 14 -1 22 6
10 7 13 8 9 1 -7 -13 43 -28 81 -25 12 2 22 -3 22 -11 0 -8 3 -9 8 -3 9 13 32
17 32 6 0 -5 75 -9 170 -8 113 0 170 4 170 11 0 6 5 4 10 -4 7 -12 10 -12 10
-1 0 7 6 11 14 8 7 -3 19 0 26 6 10 9 11 9 5 -1 -6 -12 -3 -12 15 -2 12 6 28
9 36 6 8 -3 14 -1 14 5 0 6 5 7 10 4 6 -4 16 -2 23 3 7 5 22 8 35 7 12 -1 22
2 22 6 0 4 7 10 16 13 10 4 13 2 8 -7 -6 -9 -5 -9 8 0 8 7 18 10 21 6 4 -3 7
-1 7 6 0 7 4 10 9 6 5 -3 12 -1 16 5 4 6 11 8 16 5 5 -4 9 -1 9 5 0 6 4 9 9 5
6 -3 25 3 44 14 19 11 38 17 41 14 3 -4 6 -1 6 5 0 6 9 9 20 7 11 -2 18 0 15
6 -4 5 3 9 14 9 12 0 21 5 21 10 0 6 9 10 20 10 10 0 23 6 27 14 8 14 12 16
33 16 6 0 10 8 10 18 0 14 2 15 10 2 6 -10 10 -11 10 -2 0 6 7 12 15 12 8 0
15 5 15 10 0 6 8 10 17 10 9 0 13 3 10 7 -4 4 8 14 27 22 18 9 34 21 35 26 0
6 6 10 11 10 6 0 15 7 20 15 5 8 10 12 10 8 0 -4 22 15 50 43 31 31 55 48 62
43 7 -4 10 -4 6 1 -4 4 0 14 10 22 10 9 11 12 2 7 -8 -4 -4 4 10 17 14 14 27
24 29 22 5 -3 51 66 51 78 0 6 5 7 10 4 6 -3 10 -1 10 5 0 6 5 8 12 4 6 -4 8
-3 4 4 -3 6 -2 13 4 17 6 4 8 10 5 15 -3 5 4 11 15 15 11 4 18 10 15 14 -2 5
4 19 15 31 11 12 17 27 14 31 -3 5 -1 9 4 9 14 0 74 119 67 131 -4 5 -1 8 7 7
7 -2 12 3 10 10 -1 6 3 12 9 12 5 0 7 4 4 10 -3 5 -1 10 5 10 6 0 8 4 5 10 -3
6 -1 10 5 10 8 0 8 6 0 20 -8 15 -8 18 3 14 8 -3 14 1 15 8 3 35 8 54 15 59 9
7 19 44 20 81 1 14 5 24 9 21 5 -2 8 3 8 11 0 26 1 30 11 43 7 7 6 14 -1 18
-7 5 -8 11 -1 19 5 6 11 23 13 36 2 14 7 31 11 38 5 7 3 12 -4 12 -8 0 -8 4 1
15 7 8 9 15 6 15 -4 0 -2 9 4 20 8 15 8 20 -2 20 -10 0 -10 2 -1 8 8 5 9 13 3
22 -5 8 -5 21 -1 29 9 20 7 163 -3 179 -4 7 -2 12 6 12 8 0 9 3 3 8 -6 4 -10
17 -9 30 1 12 -3 22 -8 22 -5 0 -6 6 -1 13 10 17 13 37 4 37 -8 0 -11 16 -12
55 0 10 -5 25 -11 32 -8 10 -7 13 3 13 11 0 11 2 1 9 -7 4 -14 21 -16 37 -2
16 -5 29 -6 29 -1 0 -3 9 -5 19 -2 10 -7 22 -12 25 -4 3 -9 13 -9 21 -3 34
-10 56 -22 68 -7 8 -9 18 -6 23 3 6 -2 17 -12 25 -11 9 -12 12 -4 8 12 -7 13
-5 3 8 -7 8 -10 18 -6 21 3 4 2 7 -4 7 -14 0 -35 49 -27 62 4 7 2 8 -4 4 -7
-4 -14 3 -18 19 -3 14 -10 25 -15 25 -5 0 -8 6 -6 13 1 6 -3 11 -10 10 -7 -2
-10 3 -7 11 3 8 0 17 -5 21 -6 3 -8 11 -5 17 4 6 3 8 -3 5 -5 -4 -16 6 -24 21
-18 34 -27 46 -64 85 -16 17 -29 33 -27 34 7 8 1 23 -8 18 -5 -3 -10 -1 -10 5
0 6 -5 8 -12 4 -7 -4 -8 -3 -4 4 7 11 -116 142 -134 142 -6 0 -10 7 -10 16 0
11 -5 14 -17 10 -10 -4 -14 -4 -10 0 6 7 -29 44 -42 44 -3 0 -19 11 -34 25
-15 14 -27 23 -27 19 0 -4 -9 2 -21 14 -11 12 -24 20 -28 18 -4 -3 -13 3 -21
14 -7 10 -19 16 -25 14 -7 -3 -15 2 -18 10 -4 9 -16 16 -27 16 -11 0 -20 5
-20 10 0 6 -7 10 -15 10 -9 0 -27 7 -40 16 -14 9 -25 13 -25 9 0 -3 -7 1 -16
9 -8 9 -20 14 -25 11 -5 -4 -9 -2 -9 3 0 5 -7 9 -15 10 -8 1 -22 3 -30 4 -8 1
-15 5 -15 10 0 5 -4 6 -10 3 -5 -3 -10 -2 -10 4 0 6 -6 8 -14 5 -8 -3 -17 0
-21 5 -3 6 -11 9 -16 6 -5 -4 -9 0 -9 7 0 9 -3 9 -10 -2 -7 -12 -10 -12 -10
-1 0 7 -6 11 -14 8 -7 -3 -17 -2 -22 3 -5 5 -26 10 -47 12 -20 1 -37 5 -37 8
0 9 -29 11 -262 15 -120 2 -218 0 -218 -4z"/>
</g>
</svg>
